<svg xmlns="http://www.w3.org/2000/svg" width="36" height="36" viewBox="0 0 36 36"><defs><style>.a{fill:none;}.b{fill:#fff;}</style></defs><path class="a" d="M0,0H36V36H0Z"/><path class="b" d="M30.8,18a3.559,3.559,0,0,1,1.7-3.08A3.458,3.458,0,0,0,34,11.945V7.5A3.37,3.37,0,0,0,30.8,4H5.2A3.341,3.341,0,0,0,2.016,7.483v4.462A3.37,3.37,0,0,0,3.52,14.9,3.6,3.6,0,0,1,5.2,18a3.537,3.537,0,0,1-1.7,3.08A3.458,3.458,0,0,0,2,24.055V28.5A3.37,3.37,0,0,0,5.2,32H30.8A3.37,3.37,0,0,0,34,28.5V24.055a3.458,3.458,0,0,0-1.5-2.975A3.559,3.559,0,0,1,30.8,18ZM22,25.175l-4-2.8-4,2.818a.819.819,0,0,1-1.2-.962L14,19.19,10.32,15.9a.9.9,0,0,1,.464-1.558l4.736-.3,1.728-4.813a.778.778,0,0,1,1.488,0l1.728,4.83,4.736.3a.9.9,0,0,1,.464,1.558l-3.68,3.29,1.216,5a.814.814,0,0,1-1.2.963Z"/></svg>