<svg xmlns="http://www.w3.org/2000/svg" width="32" height="32" viewBox="0 0 32 32"><defs><style>.a{fill:#fff;}.b{fill:none;}</style></defs><path class="a" d="M16,19.053a4.485,4.485,0,0,0,4.7-4.263l.016-8.526A4.5,4.5,0,0,0,16,2a4.5,4.5,0,0,0-4.714,4.263v8.526A4.5,4.5,0,0,0,16,19.053Zm8.329-4.263c0,4.263-3.991,7.247-8.329,7.247s-8.329-2.984-8.329-7.247H5c0,4.846,4.274,8.853,9.429,9.549V29h3.143V24.339C22.726,23.657,27,19.649,27,14.789Z" transform="translate(0 0)"/><path class="b" d="M0,0H32V32H0Z"/></svg>