<svg xmlns="http://www.w3.org/2000/svg" width="32" height="32" viewBox="0 0 32 32"><defs><style>.a{fill:#fff;}.b{fill:none;}</style></defs><path class="a" d="M16,3a13,13,0,1,0,0,26,2.168,2.168,0,0,0,1.6-3.626,2.159,2.159,0,0,1,1.618-3.6h2.557A7.225,7.225,0,0,0,29,14.556C29,8.171,23.179,3,16,3ZM8.056,16a2.167,2.167,0,1,1,2.167-2.167A2.164,2.164,0,0,1,8.056,16Zm4.333-5.778a2.167,2.167,0,1,1,2.167-2.167A2.164,2.164,0,0,1,12.389,10.222Zm7.222,0a2.167,2.167,0,1,1,2.167-2.167A2.164,2.164,0,0,1,19.611,10.222ZM23.944,16a2.167,2.167,0,1,1,2.167-2.167A2.164,2.164,0,0,1,23.944,16Z" transform="translate(0 0)"/><path class="b" d="M0,0H32V32H0Z"/></svg>