<svg xmlns="http://www.w3.org/2000/svg" width="32" height="32" viewBox="0 0 32 32"><defs><style>.a{fill:none;}.b{fill:#fff;}</style></defs><rect class="a" width="32" height="32"/><g transform="translate(1.84 1.002)"><path class="b" d="M26.9,3.111C23.583-.206,17.517.46,13.364,4.613a12.294,12.294,0,0,0-3.6,7.739c-.028,2.239.369,5.514-1.914,7.8l-6.01,6.01L3.853,28.17l6.01-6.01c2.282-2.282,5.556-1.885,7.8-1.913a12.328,12.328,0,0,0,7.739-3.6C29.537,12.494,30.217,6.428,26.9,3.111ZM13.86,16.137c-2.169-2.169-1.488-6.534,1.5-9.525s7.342-3.671,9.525-1.5,1.488,6.534-1.5,9.525S16.043,18.305,13.86,16.137Z" transform="translate(-1.84 -1.002)"/><path class="b" d="M18,17a1.966,1.966,0,0,1,1.41.59A2,2,0,0,1,18,21a1.966,1.966,0,0,1-1.41-.59A2,2,0,0,1,18,17m0-2a4,4,0,1,0,2.83,1.17A4,4,0,0,0,18,15Z" transform="translate(6.16 6.998)"/></g></svg>